<svg width="16" height="20" viewBox="0 0 16 20" fill="none" xmlns="http://www.w3.org/2000/svg">
<path d="M3.38999 14.539C2.00145 13.5598 0.960735 12.1639 0.418622 10.5537C-0.123492 8.9434 -0.138846 7.20234 0.374786 5.58276C0.888417 3.96318 1.90435 2.54919 3.27541 1.54565C4.64646 0.542115 6.30141 0.00115967 8.00049 0.00115967C9.69956 0.00115967 11.3545 0.542115 12.7256 1.54565C14.0966 2.54919 15.1126 3.96318 15.6262 5.58276C16.1398 7.20234 16.1245 8.9434 15.5824 10.5537C15.0402 12.1639 13.9995 13.5598 12.611 14.539L14.694 19.299C14.7274 19.3752 14.7413 19.4585 14.7344 19.5415C14.7275 19.6244 14.7001 19.7043 14.6545 19.7739C14.6089 19.8435 14.5467 19.9007 14.4734 19.9401C14.4001 19.9796 14.3182 20.0002 14.235 20H1.76499C1.6819 20.0001 1.6001 19.9795 1.52697 19.9401C1.45383 19.9007 1.39168 19.8436 1.34612 19.7742C1.30056 19.7047 1.27303 19.6249 1.26603 19.5422C1.25902 19.4594 1.27275 19.3761 1.30599 19.3L3.38899 14.539H3.38999ZM4.11899 8.97C4.33654 9.83449 4.83649 10.6016 5.53956 11.1497C6.24262 11.6977 7.10855 11.9953 7.99999 11.9953C8.89143 11.9953 9.75735 11.6977 10.4604 11.1497C11.1635 10.6016 11.6634 9.83449 11.881 8.97L9.94099 8.48499C9.83333 8.91836 9.58374 9.30323 9.23198 9.57829C8.88022 9.85336 8.44652 10.0028 7.99999 10.0028C7.55345 10.0028 7.11976 9.85336 6.768 9.57829C6.41624 9.30323 6.16665 8.91836 6.05899 8.48499L4.11899 8.97Z" fill="#5357B1"/>
</svg>
